<?xml version="1.0" encoding="UTF-8" standalone="no"?>
<!-- Created with Inkscape (http://www.inkscape.org/) -->

<svg
        version="1.1"
        id="svg1413"
        xml:space="preserve"
        width="682.66669"
        height="682.66669"
        viewBox="0 0 682.66669 682.66669"
        xmlns="http://www.w3.org/2000/svg"
        ><defs
     id="defs1417"><clipPath
       clipPathUnits="userSpaceOnUse"
       id="clipPath1427"><path
         d="M 0,512 H 512 V 0 H 0 Z"
         id="path1425" /></clipPath></defs>
    <g
            id="g1419"
            transform="matrix(1.3333333,0,0,-1.3333333,0,682.66667)"><g
       id="g1421"><g
         id="g1423"
         clip-path="url(#clipPath1427)"><g
           id="g1429"
           transform="translate(452,301)"><path
             d="m 0,0 h -151 v 151 c 0,24.853 -20.147,45 -45,45 -24.853,0 -45,-20.147 -45,-45 V 0 h -151 c -24.853,0 -45,-20.147 -45,-45 0,-24.853 20.147,-45 45,-45 h 151 v -151 c 0,-24.853 20.147,-45 45,-45 24.853,0 45,20.147 45,45 V -90 H 0 c 24.853,0 45,20.147 45,45 C 45,-20.147 24.853,0 0,0 Z"
             style="fill:none;stroke:white;stroke-width:30;stroke-linecap:round;stroke-linejoin:round;stroke-miterlimit:10;stroke-dasharray:none;stroke-opacity:1"
             id="path1431" /></g></g></g></g></svg>
