<svg id="Layer_1" height="512" viewBox="0 0 100 100" width="512" xmlns="http://www.w3.org/2000/svg">
    <g>
        <path fill="white" d="m67.518 33.199c1.619 1.619 2.998 3.448 4.096 5.437 1.068 1.935 3.501 2.634 5.436 1.567 1.934-1.068 2.635-3.502 1.567-5.436-1.462-2.646-3.293-5.078-5.443-7.227-12.572-12.572-33.029-12.572-45.602 0-12.572 12.574-12.572 33.031.001 45.604 2.311 2.311 4.94 4.248 7.813 5.758.594.312 1.23.46 1.857.46 1.438 0 2.829-.778 3.544-2.14 1.027-1.956.275-4.374-1.68-5.402-2.16-1.135-4.138-2.593-5.878-4.333-9.454-9.453-9.454-24.835-.001-34.288 9.455-9.454 24.836-9.454 34.29 0z"/>
        <path fill="white" d="m90.977 42.741c.405 2.172 2.498 3.606 4.665 3.201 2.172-.404 3.605-2.493 3.201-4.665-1.825-9.802-6.529-18.723-13.605-25.798-9.313-9.312-21.695-14.44-34.864-14.44-13.169 0-25.551 5.129-34.862 14.44-19.223 19.224-19.223 50.503 0 69.727 7.204 7.204 16.297 11.94 26.299 13.696.234.041.467.061.697.061 1.906 0 3.594-1.367 3.935-3.309.382-2.176-1.072-4.25-3.248-4.632-8.375-1.47-15.991-5.438-22.026-11.473-16.104-16.104-16.104-42.309 0-58.413 7.801-7.801 18.173-12.097 29.206-12.097s21.405 4.297 29.207 12.098c5.926 5.927 9.867 13.398 11.395 21.604z"/>
        <path fill="white" d="m65.51 94.542c2.42 0 4.753-1.054 6.748-3.048l6.805-6.805 13.039 13.039c.781.781 1.805 1.171 2.829 1.171s2.047-.391 2.829-1.171c1.562-1.563 1.562-4.095 0-5.657l-13.039-13.039 6.805-6.805c2.473-2.474 3.514-5.569 2.854-8.492-.659-2.923-2.927-5.272-6.223-6.444l-32.397-11.527c-3.974-1.414-7.528-.568-9.405 2.091-.835 1.183-2.018 3.779-.56 7.873l11.527 32.398c1.408 3.957 4.546 6.416 8.188 6.416zm19.966-29.714c.79.281 1.073.61 1.098.65.002.08-.112.499-.706 1.091l-19.267 19.268c-.547.547-.95.691-1.074.705-.096-.059-.403-.354-.667-1.097l-11.387-32.004z"/>
    </g>
</svg>
