<svg fill="none" height="512" viewBox="0 0 512 512" width="512" xmlns="http://www.w3.org/2000/svg">
    <g clip-rule="evenodd" fill="rgb(0,0,0)" fill-rule="evenodd">
        <path fill="white" d="m105.9 484.217h295.492v-444.5271c0-8.768-7.108-15.8759-15.876-15.8759h-263.74c-8.768 0-15.876 7.1079-15.876 15.8759zm-23.8141 23.814v-468.3411c0-21.9201 17.7698-39.6899 39.6901-39.6899h263.74c21.921 0 39.69 17.7698 39.69 39.6899v468.3411z"/>
        <path fill="white" d="m0 498.109c0-6.576 5.33093-11.907 11.907-11.907h488.186c6.576 0 11.907 5.331 11.907 11.907s-5.331 11.907-11.907 11.907h-488.186c-6.57607 0-11.907-5.331-11.907-11.907z"/>
        <path fill="white" d="m146.969 102.622c0-9.3164 7.552-16.8686 16.868-16.8686h53.914c9.316 0 16.868 7.5522 16.868 16.8686v53.914c0 9.316-7.552 16.868-16.868 16.868h-53.914c-9.316 0-16.868-7.552-16.868-16.868zm23.814 6.945v40.023h40.022v-40.023z"/>
        <path fill="white" d="m279.953 102.622c0-9.3164 7.552-16.8686 16.868-16.8686h53.914c9.316 0 16.868 7.5522 16.868 16.8686v53.914c0 9.316-7.552 16.868-16.868 16.868h-53.914c-9.316 0-16.868-7.552-16.868-16.868zm23.814 6.945v40.023h40.022v-40.023z"/>
        <path fill="white" d="m279.953 230.293c0-9.317 7.552-16.869 16.868-16.869h53.914c9.316 0 16.868 7.552 16.868 16.869v53.913c0 9.316-7.552 16.869-16.868 16.869h-53.914c-9.316 0-16.868-7.553-16.868-16.869zm23.814 6.945v40.023h40.022v-40.023z"/>
        <path fill="white" d="m228.33 484.214v-114.623h53.446v114.623zm-3.969-138.437c-10.96 0-19.845 8.885-19.845 19.845v142.406h101.074v-142.406c0-10.96-8.885-19.845-19.845-19.845z"/>
        <path fill="white" d="m146.969 230.293c0-9.317 7.552-16.869 16.868-16.869h53.914c9.316 0 16.868 7.552 16.868 16.869v53.913c0 9.316-7.552 16.869-16.868 16.869h-53.914c-9.316 0-16.868-7.553-16.868-16.869zm23.814 6.945v40.023h40.022v-40.023z"/>
    </g>
</svg>
