<svg id="Layer_1" height="512" viewBox="0 0 512 512" width="512" xmlns="http://www.w3.org/2000/svg">
    <path d="m470.912 203.118c-6.918-6.919-16.139-10.729-25.963-10.729s-19.044 3.81-25.963 10.729l-162.987 162.987-162.986-162.988c-6.919-6.918-16.14-10.728-25.963-10.728s-19.044 3.81-25.963 10.729l-24.337 24.335c-14.312 14.317-14.312 37.61.002 51.927l227.933 227.934c3 3.001 7.07 4.687 11.314 4.687 4.243 0 8.313-1.686 11.313-4.687l227.936-227.935c14.314-14.315 14.314-37.61-.001-51.927zm1.708 53.635-216.621 216.62-216.619-216.619c-1.809-1.81-1.809-4.866-.001-6.675l24.334-24.333c1.181-1.181 2.598-1.357 3.337-1.357s2.156.177 3.336 1.356l174.299 174.301c3 3.001 7.07 4.687 11.313 4.687s8.313-1.686 11.313-4.687l174.301-174.301c1.18-1.18 2.597-1.356 3.336-1.356s2.156.177 3.336 1.356l24.334 24.333c1.81 1.81 1.81 4.866.002 6.675zm-227.935 58.172c3 3.001 7.07 4.687 11.314 4.687 4.243 0 8.313-1.686 11.313-4.687l227.936-227.935c14.314-14.315 14.314-37.61-.001-51.927l-24.335-24.334c-6.918-6.919-16.139-10.729-25.963-10.729s-19.044 3.81-25.963 10.729l-162.987 162.988-162.986-162.988c-6.919-6.918-16.139-10.728-25.963-10.728s-19.044 3.81-25.963 10.729l-24.337 24.334c-14.312 14.317-14.312 37.61.002 51.927zm-205.306-257.235 24.334-24.333c1.181-1.18 2.598-1.357 3.337-1.357s2.156.177 3.336 1.356l174.299 174.301c3 3.001 7.07 4.687 11.313 4.687s8.313-1.686 11.313-4.687l174.302-174.301c1.18-1.18 2.597-1.356 3.336-1.356s2.156.177 3.336 1.356l24.334 24.333c1.809 1.81 1.809 4.866.001 6.675l-216.621 216.62-216.619-216.619c-1.809-1.809-1.809-4.866-.001-6.675z"
          fill="white"/>
</svg>
