<svg height="512pt" viewBox="0 0 512 512" width="512pt" xmlns="http://www.w3.org/2000/svg">
    <path fill="white" d="m194.144531 236.308594h-151.980469c-23.25 0-42.164062-18.90625-42.164062-42.15625v-152c0-23.246094 18.914062-42.152344 42.164062-42.152344h151.980469c23.25 0 42.164063 18.90625 42.164063 42.152344v152c0 23.25-18.914063 42.15625-42.164063 42.15625zm-151.980469-196.925782c-1.527343 0-2.78125 1.253907-2.78125 2.769532v152c0 1.519531 1.253907 2.769531 2.78125 2.769531h151.980469c1.527344 0 2.777344-1.25 2.777344-2.769531v-152c0-1.515625-1.25-2.769532-2.777344-2.769532zm0 0"/>
    <path fill="white" d="m194.144531 512h-151.980469c-23.25 0-42.164062-18.90625-42.164062-42.152344v-152c0-23.25 18.914062-42.15625 42.164062-42.15625h151.980469c23.25 0 42.164063 18.90625 42.164063 42.15625v152c0 23.246094-18.914063 42.152344-42.164063 42.152344zm-151.980469-196.921875c-1.527343 0-2.78125 1.25-2.78125 2.769531v152c0 1.515625 1.253907 2.769532 2.78125 2.769532h151.980469c1.527344 0 2.777344-1.253907 2.777344-2.769532v-152c0-1.519531-1.25-2.769531-2.777344-2.769531zm0 0"/>
    <path fill="white" d="m469.835938 236.308594h-151.980469c-23.25 0-42.164063-18.90625-42.164063-42.15625v-152c0-23.246094 18.914063-42.152344 42.164063-42.152344h151.980469c23.25 0 42.164062 18.90625 42.164062 42.152344v152c0 23.25-18.914062 42.15625-42.164062 42.15625zm-151.980469-196.925782c-1.527344 0-2.777344 1.253907-2.777344 2.769532v152c0 1.519531 1.25 2.769531 2.777344 2.769531h151.980469c1.527343 0 2.78125-1.25 2.78125-2.769531v-152c0-1.515625-1.253907-2.769532-2.78125-2.769532zm0 0"/>
    <path fill="white" d="m393.847656 472.617188c-10.875 0-19.695312-8.808594-19.695312-19.695313v-118.152344c0-10.886719 8.820312-19.691406 19.695312-19.691406s19.691406 8.804687 19.691406 19.691406v118.152344c0 10.886719-8.816406 19.695313-19.691406 19.695313zm0 0"/>
    <path fill="white" d="m452.921875 413.539062h-118.152344c-10.875 0-19.691406-8.808593-19.691406-19.691406 0-10.886718 8.816406-19.695312 19.691406-19.695312h118.152344c10.875 0 19.695313 8.808594 19.695313 19.695312 0 10.882813-8.820313 19.691406-19.695313 19.691406zm0 0"/>
</svg>
