<svg id="Layer_1" viewBox="0 0 512 512" xmlns="http://www.w3.org/2000/svg" data-name="Layer 1">
    <path fill="white" d="m422.542 113.269c-13.016-22.538-41.96-30.308-64.554-17.303-6.393 3.699-11.598 8.68-15.475 14.429-5.328-4.261-11.541-7.415-18.347-9.238-12.915-3.458-26.369-1.7-37.887 4.951-10.036 5.796-17.589 14.717-21.659 25.454-13.452-4.962-28.933-4.142-42.293 3.574-6.036 3.485-11.173 8.101-15.195 13.562l-31.635-54.789-15.877-27.498s-.005-.007-.007-.01c-6.652-11.512-17.425-19.757-30.335-23.215-12.914-3.459-26.37-1.7-37.877 4.946-11.533 6.649-19.792 17.424-23.257 30.341-3.464 12.914-1.707 26.371 4.945 37.891l114.489 198.276-49.812-18.485c-17.945-6.669-37.154-5.82-54.087 2.387-16.534 8.015-29.274 22.228-35.875 40.026-3.31 8.936-2.938 18.646 1.047 27.341 3.929 8.574 10.896 15.124 19.648 18.485l159.968 68.805c24.126 10.958 47.728 16.781 70.149 17.307 1.12.026 2.233.039 3.348.039 23.957 0 46.62-6.074 67.406-18.074l63.499-36.653c32.849-18.962 56.367-49.667 66.222-86.46 9.854-36.788 4.836-75.133-14.128-107.971zm47.571 208.328c-7.781 29.05-26.334 53.285-52.242 68.239l-63.499 36.654c-32.807 18.94-71.035 18.717-113.625-.662-.095-.043-.19-.085-.286-.126l-160.418-68.998c-.236-.102-.476-.197-.717-.287-2.927-1.084-4.479-4.485-3.392-7.421 3.895-10.503 11.292-18.833 20.83-23.456 5.233-2.537 10.875-3.812 16.594-3.812 4.664 0 9.379.848 13.964 2.552l88.84 32.968c5.929 2.2 12.6.446 16.679-4.386 4.08-4.831 4.691-11.702 1.529-17.178l-135.301-234.321c-2.644-4.578-3.336-9.947-1.949-15.117 1.388-5.173 4.678-9.479 9.275-12.129 4.578-2.644 9.949-3.337 15.122-1.951 5.174 1.385 9.479 4.67 12.123 9.247l103.95 180.034c2.779 4.812 7.82 7.502 13.004 7.502 2.544 0 5.125-.648 7.486-2.012 7.174-4.143 9.632-13.316 5.49-20.491l-33.521-58.057c-.005-.009-.009-.018-.014-.027l-.01-.018s0-.001-.001-.002l-.022-.04c-2.623-4.554-3.311-9.893-1.936-15.04 1.385-5.183 4.675-9.498 9.266-12.148 9.508-5.491 21.705-2.234 27.226 7.266l33.553 58.139c2.778 4.814 7.82 7.505 13.006 7.505 2.543 0 5.122-.648 7.483-2.011 7.175-4.141 9.635-13.314 5.494-20.489l-30.008-51.996c-.039-.069-.068-.14-.107-.209v-.003c-2.644-4.562-3.34-9.918-1.961-15.081 1.385-5.184 4.675-9.498 9.266-12.148 4.578-2.645 9.95-3.338 15.123-1.952 5.174 1.385 9.479 4.67 12.121 9.245l30.104 52.186c2.778 4.814 7.821 7.506 13.007 7.506 2.543 0 5.121-.647 7.482-2.01 7.175-4.141 9.636-13.313 5.496-20.489l-17.84-30.919c-.028-.05-.049-.102-.077-.151l-.009-.016c-4.742-8.229-1.908-18.792 6.294-23.538 8.248-4.748 18.824-1.911 23.578 6.321l62.421 108.118c14.958 25.9 18.91 56.161 11.129 85.208zm-421.139-28.839c-3.979-.038-7.781-1.655-10.567-4.496l-26.136-26.646c-5.801-5.914-5.709-15.411.205-21.212s15.412-5.709 21.212.205l15.627 15.932 15.938-15.649c5.911-5.804 15.409-5.718 21.212.194 5.804 5.911 5.717 15.408-.194 21.212l-26.646 26.165c-2.806 2.755-6.581 4.297-10.509 4.297-.047 0-.094 0-.141 0zm-36.499-98.15c-5.915-5.801-6.006-15.298-.205-21.212l26.136-26.646c5.801-5.915 15.297-6.007 21.212-.205l26.646 26.136c5.915 5.801 6.006 15.298.205 21.212-5.801 5.915-15.297 6.006-21.212.205l-15.938-15.632-15.633 15.938c-2.937 2.995-6.822 4.496-10.709 4.497-3.791 0-7.583-1.427-10.502-4.292z"/>
</svg>
