<svg id="Layer_1" enable-background="new 0 0 128 128" height="512" viewBox="0 0 128 128" width="512"
     xmlns="http://www.w3.org/2000/svg">
    <path fill="white" id="Sign_Out_2_"
          d="m80 112c-1.023 0-2.047-.391-2.828-1.172l-12-12c-1.563-1.563-1.563-4.094 0-5.656l17.172-17.172h-50.344c-2.209 0-4-1.791-4-4v-16c0-2.209 1.791-4 4-4h50.344l-17.172-17.172c-1.563-1.563-1.563-4.094 0-5.656l12-12c1.563-1.563 4.094-1.563 5.656 0l44 44c1.563 1.563 1.563 4.094 0 5.656l-44 44c-.781.781-1.805 1.172-2.828 1.172zm-6.344-16 6.344 6.344 38.344-38.344-38.344-38.344-6.344 6.344 21.172 21.172c1.145 1.145 1.486 2.863.867 4.359-.619 1.494-2.078 2.469-3.695 2.469h-56v8h56c1.617 0 3.076.975 3.695 2.469.619 1.496.277 3.215-.867 4.359zm-17.656 24c0-2.209-1.791-4-4-4h-28c-8.822 0-16-7.178-16-16v-72c0-8.822 7.178-16 16-16h28c2.209 0 4-1.791 4-4s-1.791-4-4-4h-28c-13.234 0-24 10.766-24 24v72c0 13.234 10.766 24 24 24h28c2.209 0 4-1.791 4-4z"/>
</svg>
