<?xml version="1.0" encoding="UTF-8"?>
<svg xmlns="http://www.w3.org/2000/svg" viewBox="0 0 512 512" width="512" height="512">
    <g id="_14-set_goal">
        <path fill="white" d="M504.875,386.687c-5.7-3.8-56.856-36.583-96.03-17L348.223,400h-101.6l-32-32H288a64.072,64.072,0,0,0,64-64V288a16,16,0,0,0-16-16H0v32H320a32.036,32.036,0,0,1-32,32H176a16,16,0,0,0-11.313,27.313l64,64A16,16,0,0,0,240,432H352a15.994,15.994,0,0,0,7.155-1.689l64-32c11.2-5.6,27.54-1.92,41.29,3.5L347.156,480H179.082L21.942,417.145l-11.884,29.71,160,64A15.977,15.977,0,0,0,176,512H352a16,16,0,0,0,8.875-2.687l144-96a16,16,0,0,0,0-26.626Z"/>
        <path fill="white" d="M256,240A120.179,120.179,0,0,0,374.931,136h67.276l43.55,36.292,20.486-24.584L472.993,120l33.25-27.708L485.757,67.708,442.207,104H374.931A120,120,0,1,0,256,240Zm0-208a88.145,88.145,0,0,1,86.538,72H309.659a56,56,0,1,0,0,32h32.879A88,88,0,1,1,256,32Zm17.869,104a24,24,0,1,1,0-32H256v32Z"/>
    </g>
</svg>
