<svg clip-rule="evenodd" fill-rule="evenodd" stroke-linejoin="round" stroke-miterlimit="2" viewBox="0 0 64 64"
     xmlns="http://www.w3.org/2000/svg">
    <g transform="translate(-3268 -8)">
        <path fill="white" d="m3278 16.77v-2.77c0-1.104-.9-2-2-2s-2 .896-2 2v8.006c0 .531.21 1.04.59 1.415.37.375.88.586 1.41.585l8-.006c1.11-.001 2-.898 2-2.002 0-1.103-.9-1.999-2-1.998l-3.59.003c5.05-4.95 11.97-8.003 19.59-8.003 15.45 0 28 12.546 28 28s-12.55 28-28 28-28-12.546-28-28c0-1.104-.9-2-2-2s-2 .896-2 2c0 17.661 14.34 32 32 32s32-14.339 32-32-14.34-32-32-32c-8.52 0-16.26 3.335-22 8.77zm22 4.23c-10.49 0-19 8.514-19 19s8.51 19 19 19 19-8.514 19-19-8.51-19-19-19zm0 4c8.28 0 15 6.721 15 15s-6.72 15-15 15-15-6.721-15-15 6.72-15 15-15zm7 13h-5v-9c0-1.104-.9-2-2-2s-2 .896-2 2v11c0 1.105.89 2 2 2h7c1.1 0 2-.896 2-2s-.9-2-2-2z"/>
    </g>
</svg>
