<svg enable-background="new 0 0 32 32" viewBox="0 0 32 32" xmlns="http://www.w3.org/2000/svg">
    <path fill="white" d="m16.3613281 2c-3.6425781 0-7.0678711 1.418457-9.6435547 3.9946289-2.5761719 2.5756836-3.9946289 6.0009766-3.9946289 9.644043 0 3.3065186 1.1794434 6.4266968 3.3219604 8.9021606l-3.7521362 3.7521362c-.390625.390625-.390625 1.0234375 0 1.4140625.1953125.1953126.4511719.2929688.7070313.2929688s.5117188-.0976562.7070312-.2929688l3.7521362-3.7521362c2.4754639 2.1425171 5.5956421 3.3219604 8.9021606 3.3219604 3.6430664 0 7.0683594-1.418457 9.644043-3.9946289 2.576172-2.5756835 3.994629-6.0009765 3.994629-9.6435546 0-3.6430664-1.418457-7.0683594-3.9946289-9.644043-2.5756836-2.5761719-6.0009766-3.9946289-9.644043-3.9946289zm-8.2070312 21.8885498c-2.2065916-2.1936417-3.4328876-5.1326447-3.4311523-8.2498779 0-3.1088867 1.2104492-6.0317383 3.4086914-8.2299805s5.1210937-3.4086914 8.2294921-3.4086914c3.1088867 0 6.0317383 1.2104492 8.2299805 3.4086914s3.4086914 5.1210938 3.4086914 8.2299805c0 3.1083984-1.2104492 6.03125-3.4086914 8.2294922s-5.1210938 3.4086914-8.2299805 3.4086914c-3.0982055 0-6.0112304-1.2037354-8.2070312-3.3883057z"/>
</svg>
