<svg height="512" viewBox="0 0 512 512" width="512" xmlns="http://www.w3.org/2000/svg">
    <path fill="white" d="m478.43 200.17-35.89-1.48a193.12 193.12 0 0 0 -14.14-34l24.36-26.47a34.94 34.94 0 0 0 -1-48.48l-29.47-29.49a34.94 34.94 0 0 0 -48.48-1l-26.55 24.42a194.14 194.14 0 0 0 -33.94-14l-1.49-36.06a35 35 0 0 0 -35-33.61h-41.66a35 35 0 0 0 -35 33.57l-1.49 36.06a194.14 194.14 0 0 0 -33.94 14l-26.55-24.39a35 35 0 0 0 -48.48 1l-29.46 29.47a34.94 34.94 0 0 0 -1 48.48l24.35 26.47a193.12 193.12 0 0 0 -14.14 34l-35.89 1.48a35 35 0 0 0 -33.57 35.03v41.66a35 35 0 0 0 33.57 35l35.73 1.48a194.16 194.16 0 0 0 14.13 34.22l-24.19 26.28a35 35 0 0 0 1 48.48l29.46 29.46a35 35 0 0 0 48.48 1l26.2-24.12a192.87 192.87 0 0 0 34.31 14.23l1.47 35.56a35 35 0 0 0 35 33.57h41.66a35 35 0 0 0 35-33.57l1.47-35.56a192.87 192.87 0 0 0 34.31-14.23l26.2 24.12a34.94 34.94 0 0 0 48.48-1l29.46-29.46a35 35 0 0 0 1-48.48l-24.19-26.28a194.16 194.16 0 0 0 14.13-34.22l35.73-1.48a35 35 0 0 0 33.57-35v-41.66a35 35 0 0 0 -33.55-35zm3.57 76.66a5 5 0 0 1 -4.81 5l-46.69 1.94a15 15 0 0 0 -13.95 11.46 164.2 164.2 0 0 1 -19.24 46.6 15 15 0 0 0 1.78 17.95l31.59 34.32a5 5 0 0 1 -.14 6.95l-29.47 29.47a5 5 0 0 1 -6.95.14l-34.26-31.53a15 15 0 0 0 -18-1.77 164.17 164.17 0 0 1 -46.67 19.36 15 15 0 0 0 -11.44 14l-1.93 46.49a5 5 0 0 1 -5 4.81h-41.65a5 5 0 0 1 -5-4.81l-1.93-46.49a15 15 0 0 0 -11.44-14 164.17 164.17 0 0 1 -46.67-19.36 15 15 0 0 0 -18 1.77l-34.26 31.53a5 5 0 0 1 -6.95-.14l-29.46-29.45a5 5 0 0 1 -.14-6.95l31.59-34.32a15 15 0 0 0 1.78-17.95 164.2 164.2 0 0 1 -19.24-46.6 15 15 0 0 0 -14-11.46l-46.69-1.94a5 5 0 0 1 -4.81-5v-41.68a5 5 0 0 1 4.81-5l46.81-1.94a15 15 0 0 0 13.95-11.42 164.06 164.06 0 0 1 19.29-46.42 15 15 0 0 0 -1.76-18l-31.73-34.51a5 5 0 0 1 .14-6.95l29.47-29.47a5 5 0 0 1 6.95-.14l34.59 31.83a15 15 0 0 0 17.94 1.79 164 164 0 0 1 46.35-19.18 15 15 0 0 0 11.44-14l2-47a5 5 0 0 1 5-4.81h41.66a5 5 0 0 1 5 4.81l1.95 47a15 15 0 0 0 11.44 14 164 164 0 0 1 46.35 19.18 15 15 0 0 0 17.94-1.79l34.59-31.83a5 5 0 0 1 6.95.14l29.47 29.47a5 5 0 0 1 .14 6.95l-31.79 34.52a15 15 0 0 0 -1.76 18 164.06 164.06 0 0 1 19.29 46.42 15 15 0 0 0 13.95 11.42l46.81 1.94a5 5 0 0 1 4.81 5z"/>
    <path fill="white" d="m256 141a115 115 0 1 0 115 115 115.13 115.13 0 0 0 -115-115zm0 200a85 85 0 1 1 85-85 85.1 85.1 0 0 1 -85 85z"/>
</svg>
