<svg height="512pt" viewBox="0 -27 512 512" width="512pt" xmlns="http://www.w3.org/2000/svg">
    <path fill="white" d="m256 458.300781c-2.433594 0-4.859375-.519531-7.117188-1.550781l-238.933593-109.683594c-6.066407-2.785156-9.949219-8.851562-9.949219-15.515625 0-6.667969 3.882812-12.734375 9.949219-15.515625l108.066406-49.601562c8.515625-3.917969 18.703125-.199219 22.625 8.402344 3.933594 8.566406.175781 18.699218-8.394531 22.632812l-74.269532 34.082031 198.023438 90.898438 198.023438-90.898438-73.789063-33.867187c-8.570313-3.933594-12.324219-14.066406-8.394531-22.632813 3.941406-8.566406 14.097656-12.285156 22.625-8.402343l107.582031 49.382812c6.070313 2.785156 9.953125 8.851562 9.953125 15.519531 0 6.664063-3.882812 12.730469-9.949219 15.515625l-238.933593 109.683594c-2.257813 1.03125-4.683594 1.550781-7.117188 1.550781zm0 0"/>
    <path fill="white" d="m256 355.898438c-2.433594 0-4.859375-.515626-7.117188-1.550782l-238.933593-109.683594c-6.066407-2.78125-9.949219-8.847656-9.949219-15.515624 0-6.664063 3.882812-12.734376 9.949219-15.515626l108.066406-49.597656c8.515625-3.902344 18.703125-.183594 22.625 8.398438 3.933594 8.570312.175781 18.703125-8.394531 22.632812l-74.269532 34.082032 198.023438 90.898437 198.023438-90.898437-73.789063-33.867188c-8.570313-3.933594-12.324219-14.066406-8.394531-22.632812 3.941406-8.566407 14.097656-12.265626 22.625-8.398438l107.582031 49.382812c6.070313 2.78125 9.953125 8.851563 9.953125 15.515626 0 6.667968-3.882812 12.734374-9.949219 15.515624l-238.933593 109.683594c-2.257813 1.035156-4.683594 1.550782-7.117188 1.550782zm0 0"/>
    <path fill="white" d="m256 253.5c-2.433594 0-4.859375-.515625-7.117188-1.550781l-238.933593-109.683594c-6.066407-2.78125-9.949219-8.851563-9.949219-15.515625 0-6.667969 3.882812-12.734375 9.949219-15.515625l238.933593-109.683594c4.515626-2.066406 9.71875-2.066406 14.234376 0l238.933593 109.683594c6.066407 2.78125 9.949219 8.847656 9.949219 15.515625 0 6.664062-3.882812 12.734375-9.949219 15.515625l-238.933593 109.683594c-2.257813 1.035156-4.683594 1.550781-7.117188 1.550781zm-198.023438-126.75 198.023438 90.898438 198.023438-90.898438-198.023438-90.898438zm0 0"/>
</svg>
